{"title":"Alex Zurdo - Que Espere [1080p]","uid":12769820,"size":66791438,"categoryP":"video","categoryS":"music_videos","magnet":"?xt=urn:btih:d1540906e581315ae6f7d68aa0eb6e1f30960662&amp;dn=Alex+Zurdo+-+Que+Espere+%5B1080p%5D&amp;tr=udp%3A%2F%2Ftracker.leechers-paradise.org%3A6969&amp;tr=udp%3A%2F%2Fzer0day.ch%3A1337&amp;tr=udp%3A%2F%2Fopen.demonii.com%3A1337&amp;tr=udp%3A%2F%2Ftracker.coppersurfer.tk%3A6969&amp;tr=udp%3A%2F%2Fexodus.desync.com%3A6969","seeders":1,"leechers":0,"uploader":"MusicVideos-HQ","files":1,"time":1447650845,"description":"Capturas: http://i.imgur.com/DsSVxcz.jpg\r\n\r\nGeneral\r\n\r\nFormat                         : MPEG-4\r\nFormat profile                 : Base Media\r\nCodec ID                       : isom\r\nFile size                      : 63.7 MiB\r\nDuration                       : 4mn 26s\r\nOverall bit rate               : 2 006 Kbps\r\nWriting application            : Lavf56.40.101\r\n\r\nVideo\r\nID                             : 1\r\nFormat                         : AVC\r\nFormat/Info                    : Advanced Video Codec\r\nFormat profile                 :   \r\nFormat settings, CABAC         : Yes\r\nFormat settings, ReFrames      : 3 frames\r\nCodec ID                       : avc1\r\nCodec ID/Info                  : Advanced Video Coding\r\nDuration                       : 4mn 26s\r\nBit rate                       : 1 874 Kbps\r\nWidth                          : 1 920 pixels\r\nHeight                         : 1 080 pixels\r\nDisplay aspect ratio           : 16:9\r\nFrame rate mode                : Variable\r\nFrame rate                     : 23.976 fps\r\nMinimum frame rate             : 23.974 fps\r\nMaximum frame rate             : 90 000.000 fps\r\nColor space                    : YUV\r\nChroma subsampling             : 4:2:0\r\nBit depth                      : 8 bits\r\nScan type                      : Progressive\r\nBits/(Pixel*Frame)             : 0.038\r\nStream size                    : 59.5 MiB (93%)\r\n\r\nAudio\r\nID                             : 2\r\nFormat                         : AAC\r\nFormat/Info                    : Advanced Audio Codec\r\nFormat profile                 : LC\r\nCodec ID                       : 40\r\nDuration                       : 4mn 26s\r\nBit rate mode                  : Constant\r\nBit rate                       : 126 Kbps\r\nChannel(s)                     : 2 channels\r\nChannel positions              : Front: L R\r\nSampling rate                  : 44.1 KHz\r\nCompression mode               : Lossy\r\nStream size                    : 3.99 MiB (6%)","torrent":{"xt":"urn:btih:d1540906e581315ae6f7d68aa0eb6e1f30960662","amp;dn":"Alex+Zurdo+-+Que+Espere+%5B1080p%5D","amp;tr":["udp%3A%2F%2Ftracker.leechers-paradise.org%3A6969","udp%3A%2F%2Fzer0day.ch%3A1337","udp%3A%2F%2Fopen.demonii.com%3A1337","udp%3A%2F%2Ftracker.coppersurfer.tk%3A6969","udp%3A%2F%2Fexodus.desync.com%3A6969"],"infoHash":"d1540906e581315ae6f7d68aa0eb6e1f30960662","infoHashBuffer":{"type":"Buffer","data":[209,84,9,6,229,129,49,90,230,247,214,138,160,235,110,31,48,150,6,98]},"announce":[],"urlList":[]}}